<?xml version="1.0" encoding="UTF-8"?>
<svg version="1.1" xmlns="http://www.w3.org/2000/svg" width="500" height="500">
<path d="M0 0 C0.70253906 0.07089844 1.40507812 0.14179687 2.12890625 0.21484375 C14.80183137 2.23253666 24.19683102 11.39300191 33 20 C33.78117188 20.71929687 34.56234375 21.43859375 35.3671875 22.1796875 C48.16308233 34.24699046 57.58452869 49.87434195 64.6171875 65.87890625 C70.09853465 79.5091138 70.09853465 79.5091138 81.109375 88.44140625 C96.52608877 96.75393165 106.31946423 114.95588457 111.41845703 131.02734375 C112.96813068 136.2840033 114.07283683 141.60308003 115 147 C115.13148438 147.75796875 115.26296875 148.5159375 115.3984375 149.296875 C118.17488108 168.0566289 112.57876753 190.28777158 102 206 C93.33017473 217.12818782 83.9282201 224.72788177 70 228 C61.27564912 229.00057948 52.56021014 228.9168758 45 224 C39.92482513 219.46453589 36.37399157 214.83705634 35.69921875 207.9140625 C35.66903709 199.44307557 36.39681927 194.76014994 41.25 187.75 C46.41992097 182.58007903 52.48828549 181.17251873 59.578125 180.82421875 C64.42751858 180.84349078 68.69723255 182.12046684 73.3125 183.5 C81.558459 185.80312665 89.53136255 187.88366868 97.875 184.8125 C103.67373036 181.44923639 107.13309333 177.46432308 109 171 C112.09702338 158.76787168 106.8971525 146.41162307 100.84375 135.93359375 C95.6369977 127.64912134 89.88275794 121.82086955 82 116 C82.2165625 117.21623047 82.2165625 117.21623047 82.4375 118.45703125 C85.32999408 135.71156191 85.24706943 154.18758856 75.46875 169.37890625 C71.29761018 174.72071974 66.60821941 177.53865523 60 179 C50.1133305 180.04512788 41.55449268 179.14658602 33.6875 172.8125 C27.08421288 166.52428026 24.61358564 158.98606071 24 150 C24.01344287 143.64958645 24.42943183 137.3125915 24.82226562 130.9765625 C25.11772842 126.0283724 25.33571967 121.07672507 25.5625 116.125 C25.64666542 114.3567484 25.73125531 112.58851692 25.81640625 110.8203125 C25.87699219 109.55960937 25.93757812 108.29890625 26 107 C8.76685024 113.37982 -6.23376819 120.62123092 -20 133 C-20.76699219 133.68449219 -21.53398437 134.36898437 -22.32421875 135.07421875 C-38.19028395 150.05422097 -46.87583228 169.15748966 -53.23632812 189.65844727 C-56.91695629 201.09151332 -62.10037342 209.39880301 -73 215 C-79.53744114 217.75798298 -86.47873703 217.49894124 -93.16796875 215.28125 C-101.08076019 211.73044224 -106.02864584 206.05596693 -109.2734375 198.11328125 C-121.37750875 162.90735359 -102.47808041 113.20949605 -87.20703125 81.3984375 C-80.82486966 68.53276547 -73.36569501 56.66325899 -65 45 C-64.24847656 43.93910156 -63.49695313 42.87820312 -62.72265625 41.78515625 C-48.57548097 22.31680111 -26.69574343 -3.13190286 0 0 Z M-18.0625 55.875 C-22.8230245 62.8552135 -26.45145763 70.35456767 -30 78 C-30.34546875 78.73637695 -30.6909375 79.47275391 -31.046875 80.23144531 C-32.06679366 82.41875222 -33.06860544 84.61326001 -34.0625 86.8125 C-34.37388916 87.48821045 -34.68527832 88.1639209 -35.00610352 88.86010742 C-36.82885413 92.81256691 -36.82885413 92.81256691 -36 97 C-34.9584375 96.41992188 -33.916875 95.83984375 -32.84375 95.2421875 C-17.29615548 86.71142211 -2.08198306 81.43015402 15.19091797 77.47729492 C17.08143738 77.04438362 17.08143738 77.04438362 19 76 C18.4923219 70.27368966 16.88036858 66.01933342 14.25 60.9375 C13.91484375 60.25623047 13.5796875 59.57496094 13.234375 58.87304688 C10.6691757 53.81552326 7.7704073 48.96609551 3.0625 45.625 C-6.17982706 42.82429483 -12.69133563 48.87876822 -18.0625 55.875 Z " fill="#FDC959" transform="translate(248,91)"/>
<path d="M0 0 C2.24265828 2.79092585 3.73990375 5.42993403 5.09375 8.73828125 C10.37113346 21.83935753 10.37113346 21.83935753 21.07421875 30.37109375 C37.09750686 39.2919364 47.00206948 58.04648252 52 75 C53.20255767 79.64045784 54.18847873 84.2762195 55 89 C55.19722656 90.13695312 55.19722656 90.13695312 55.3984375 91.296875 C58.17488108 110.0566289 52.57876753 132.28777158 42 148 C37.03818339 154.36875893 31.13710899 161.03016227 24 165 C23.01 164.67 22.02 164.34 21 164 C21.66 164 22.32 164 23 164 C23.33 162.68 23.66 161.36 24 160 C25.65 160 27.3 160 29 160 C29 158.989375 29 157.97875 29 156.9375 C29.62047028 152.26010867 32.60397833 150.16368395 36.08984375 147.28515625 C38 146 38 146 40 146 C40.12375 145.401875 40.2475 144.80375 40.375 144.1875 C41 142 41 142 43 139 C43.66 139 44.32 139 45 139 C45.66 136.03 46.32 133.06 47 130 C42.49261957 129.91495509 38.16892087 130.0602718 33.6875 130.5625 C28.02045725 131.1339665 22.63664157 130.70866867 17 130 C16.67 129.01 16.34 128.02 16 127 C16.928125 127.165 17.85625 127.33 18.8125 127.5 C26.67671092 128.58471875 33.98338056 129.06963928 41 125 C46.50711524 120.49417844 48.7903228 115.34898864 49.9375 108.5 C50.97639886 93.93331172 42.86148466 79.03213862 33.9765625 68.078125 C30.35432623 64.26976592 26.21972926 61.11597714 22 58 C22.144375 58.81082031 22.28875 59.62164062 22.4375 60.45703125 C25.28819642 77.46222727 25.54706821 96.65867254 15.328125 111.4140625 C12.07504586 115.37245526 8.9645045 118.34516517 4 120 C1.625 119.6875 1.625 119.6875 0 119 C1.98 118.505 1.98 118.505 4 118 C4 117.34 4 116.68 4 116 C5.32 116 6.64 116 8 116 C8 115.34 8 114.68 8 114 C8.99 114 9.98 114 11 114 C10.67 112.68 10.34 111.36 10 110 C14.75 106 14.75 106 17 106 C17.12375 104.948125 17.2475 103.89625 17.375 102.8125 C18 99 18 99 19.0234375 96.703125 C20.24046889 93.33438211 20.2652955 90.5128227 20.25 86.9375 C20.25515625 85.72964844 20.2603125 84.52179688 20.265625 83.27734375 C19.98860486 79.85940411 19.45659786 77.45659786 17 75 C16.9249484 73.47044848 16.91682293 71.93750212 16.9375 70.40625 C16.94523437 69.4575 16.95296875 68.50875 16.9609375 67.53125 C16.98657653 65.54166144 17.01260535 63.55207785 17.0390625 61.5625 C17.07581852 57.00475379 17.01601132 52.60333665 16.40625 48.08203125 C15.9744001 44.68881626 16.12236757 42.38812018 17.5 39.1875 C18.85629431 35.97799321 19.13844788 34.33295595 18 31 C16.68 31 15.36 31 14 31 C13.67 30.01 13.34 29.02 13 28 C12.01 27.34 11.02 26.68 10 26 C9.5359375 24.515 9.5359375 24.515 9.0625 23 C8.30450416 19.89051751 8.30450416 19.89051751 5.875 18.625 C4.946875 18.315625 4.946875 18.315625 4 18 C4.33 16.02 4.66 14.04 5 12 C4.34 12 3.68 12 3 12 C3 10.68 3 9.36 3 8 C2.01 8.33 1.02 8.66 0 9 C0 6.03 0 3.06 0 0 Z " fill="#FCD95E" transform="translate(308,149)"/>
<path d="M0 0 C11.69570519 7.0438375 11.69570519 7.0438375 15 11 C15 11.66 15 12.32 15 13 C15.66 13 16.32 13 17 13 C17 13.66 17 14.32 17 15 C18.32 15.66 19.64 16.32 21 17 C21 17.99 21 18.98 21 20 C16.21992745 19.11480138 12.10789631 16.76219027 9 13 C9 12.34 9 11.68 9 11 C8.484375 10.9175 7.96875 10.835 7.4375 10.75 C3.95544268 9.67859775 1.12799115 7.86476395 -2 6 C-2 5.34 -2 4.68 -2 4 C-12.12273722 2.52760186 -20.68169723 2.00118558 -30 7 C-36.76523006 12.09869536 -42.26676926 18.01160116 -47 25 C-47.62003906 25.86238281 -48.24007812 26.72476563 -48.87890625 27.61328125 C-52.49702753 32.51123058 -52.49702753 32.51123058 -55 38 C-55.66 38 -56.32 38 -57 38 C-57.04125 38.78375 -57.0825 39.5675 -57.125 40.375 C-58.18885152 44.78238486 -60.20022391 47.93592731 -62.625 51.73046875 C-64.13324515 54.03120535 -64.13324515 54.03120535 -65 57 C-65.66 57 -66.32 57 -67 57 C-67.2475 57.969375 -67.495 58.93875 -67.75 59.9375 C-69.03854722 64.49410178 -70.99998479 68.71841403 -73 73 C-73.66 73 -74.32 73 -75 73 C-75.2475 74.3921875 -75.2475 74.3921875 -75.5 75.8125 C-77.12526262 81.63237422 -81.19459803 86.41766179 -85 91 C-87.73247348 92.36623674 -89.98198902 92.128426 -93 92 C-94 91 -94 91 -94.375 87.5625 C-94.27519488 81.9235107 -91.74634168 77.80120541 -89 73 C-88.29528332 71.75016325 -87.59087481 70.50015269 -86.88671875 69.25 C-84.94585691 65.82074188 -82.97872702 62.40753488 -81 59 C-80.34 59 -79.68 59 -79 59 C-78.89300781 58.278125 -78.78601563 57.55625 -78.67578125 56.8125 C-77.94229714 53.75984937 -76.83226971 51.66494333 -75.1875 49 C-74.68605469 48.175 -74.18460938 47.35 -73.66796875 46.5 C-72 44 -72 44 -70.00390625 41.515625 C-68.01643473 39.02063152 -66.39454354 36.48026161 -64.75 33.75 C-60.07520172 26.30643708 -54.2860234 20.11141164 -48 14 C-47.278125 13.236875 -46.55625 12.47375 -45.8125 11.6875 C-44 10 -44 10 -42 10 C-42 9.34 -42 8.68 -42 8 C-41.34 8 -40.68 8 -40 8 C-40 7.34 -40 6.68 -40 6 C-36.32547562 3.1605948 -34.73113419 2 -30 2 C-30 1.34 -30 0.68 -30 0 C-20.5422625 -4.4507 -9.43600196 -4.80493232 0 0 Z " fill="#FEDC5A" transform="translate(260,101)"/>
<path d="M0 0 C12.51825116 11.03240533 14.73696763 33.26726827 16.2890625 48.9140625 C16.95307244 66.96306007 9.39279738 88.71256912 -2.3125 102.25 C-6.39859974 106.57117147 -10.76470538 111.08799877 -16 114 C-16.99 113.67 -17.98 113.34 -19 113 C-18.34 113 -17.68 113 -17 113 C-16.67 111.68 -16.34 110.36 -16 109 C-14.35 109 -12.7 109 -11 109 C-11 107.989375 -11 106.97875 -11 105.9375 C-10.37952972 101.26010867 -7.39602167 99.16368395 -3.91015625 96.28515625 C-2 95 -2 95 0 95 C0.12375 94.401875 0.2475 93.80375 0.375 93.1875 C1 91 1 91 3 88 C3.66 88 4.32 88 5 88 C5.66 85.03 6.32 82.06 7 79 C2.49261957 78.91495509 -1.83107913 79.0602718 -6.3125 79.5625 C-11.97954275 80.1339665 -17.36335843 79.70866867 -23 79 C-23.33 78.01 -23.66 77.02 -24 76 C-23.071875 76.165 -22.14375 76.33 -21.1875 76.5 C-13.32328908 77.58471875 -6.01661944 78.06963928 1 74 C6.50711524 69.49417844 8.7903228 64.34898864 9.9375 57.5 C10.80770745 45.2985806 5.08647229 34.13941324 -1 24 C-1.56589844 23.05382812 -2.13179688 22.10765625 -2.71484375 21.1328125 C-3.13894531 20.42898437 -3.56304687 19.72515625 -4 19 C-2 19 -2 19 0.125 20.8125 C2 23 2 23 2 26 C2.99 25.67 3.98 25.34 5 25 C6.9451 27.91765 7.45276317 29.62537285 8 33 C9.93208458 26.88173216 7.67174992 22.48455496 5 17 C4.09418767 15.45193091 3.1778646 13.90995315 2.25 12.375 C-0.28755015 8.02158827 -0.45239827 4.976381 0 0 Z " fill="#F9CA6D" transform="translate(348,200)"/>
<path d="M0 0 C1.875 0.125 1.875 0.125 4 1 C5.25 4.0625 5.25 4.0625 6 7 C7.32 7 8.64 7 10 7 C10 7.66 10 8.32 10 9 C10.66 9 11.32 9 12 9 C15.82292584 11.86719438 17.18102901 13.76557572 17.875 18.5 C18.75993294 24.36158548 21.42292102 28.78504279 24.44140625 33.82421875 C26.15372037 37.31321969 26.73129191 40.13616298 27 44 C26.0625 46.4375 26.0625 46.4375 25 48 C24.71125 47.236875 24.4225 46.47375 24.125 45.6875 C23.03730987 42.84970692 23.03730987 42.84970692 21 40 C20.34 40 19.68 40 19 40 C18.67 39.01 18.34 38.02 18 37 C17.01 36.34 16.02 35.68 15 35 C15 34.34 15 33.68 15 33 C14.34 33 13.68 33 13 33 C10.95830515 30.09451118 10 28.59857954 10 25 C9.236875 24.896875 8.47375 24.79375 7.6875 24.6875 C4.70259478 23.92391959 3.64325574 23.59461433 2 21 C1.8125 17.3125 1.8125 17.3125 2 14 C1.01 14 0.02 14 -1 14 C-1.26890756 5.93277311 -1.26890756 5.93277311 1 2 C0.67 1.34 0.34 0.68 0 0 Z " fill="#FBC055" transform="translate(331,186)"/>
<path d="M0 0 C0.70253906 0.07089844 1.40507812 0.14179687 2.12890625 0.21484375 C14.77642069 2.22849095 24.23213828 11.37646522 33 20 C33.90878906 20.89332031 34.81757813 21.78664063 35.75390625 22.70703125 C37.85078052 24.79077954 39.93332735 26.88635752 42 29 C40 30 40 30 37.9375 29.75 C37.298125 29.5025 36.65875 29.255 36 29 C35.505 27.515 35.505 27.515 35 26 C33.515 25.505 33.515 25.505 32 25 C32 23.68 32 22.36 32 21 C31.360625 20.731875 30.72125 20.46375 30.0625 20.1875 C28 19 28 19 27 16 C24.74674597 15.08723369 22.48290011 14.54218478 20.12890625 13.94140625 C18 13 18 13 16.71484375 10.90234375 C16.47894531 10.27457031 16.24304688 9.64679688 16 9 C15.41992188 9.35835937 14.83984375 9.71671875 14.2421875 10.0859375 C12 11 12 11 10.1328125 10.5390625 C9.47023438 10.23742187 8.80765625 9.93578125 8.125 9.625 C1.88602266 7.25272554 -4.42295103 7.74739641 -11 8 C-11 7.01 -11 6.02 -11 5 C-14.84641653 4.5595814 -14.84641653 4.5595814 -16.5625 6.375 C-17.036875 6.91125 -17.51125 7.4475 -18 8 C-21 10 -21 10 -25 10 C-25.33 10.99 -25.66 11.98 -26 13 C-28 13.66666667 -30 14.33333333 -32 15 C-33.37310707 16.29233607 -34.71034824 17.62437146 -36 19 C-38 20.3125 -38 20.3125 -40 21 C-41.34364362 20.71101782 -42.67986936 20.38228783 -44 20 C-32.339833 8.62359813 -17.1513911 -2.01217437 0 0 Z " fill="#FBC55B" transform="translate(248,91)"/>
<path d="M0 0 C0 0.99 0 1.98 0 3 C-0.7425 3.721875 -1.485 4.44375 -2.25 5.1875 C-5.10401294 8.10637687 -6.37191861 10.52310337 -7.91015625 14.23046875 C-9.27730125 16.45024182 -10.66061385 16.94774599 -13 18 C-14.12516085 19.83284443 -14.12516085 19.83284443 -15 22 C-15.45375 22.70125 -15.9075 23.4025 -16.375 24.125 C-17.8656615 26.7623242 -18.84209508 29.22617642 -19.875 32.0625 C-21.50122513 36.28189493 -23.0676117 38.55554241 -27 41 C-27.495 41.495 -27.495 41.495 -28 42 C-28 42.99 -28 43.98 -28 45 C-28.30398082 48.14113511 -28.95871738 48.96094887 -31.3125 51.1875 C-33.69466602 52.79407709 -35.20379133 53.58574686 -38 54 C-36.45374046 49.73973282 -34.33444197 45.9290768 -32 42.0625 C-31.60699707 41.41007324 -31.21399414 40.75764648 -30.80908203 40.08544922 C-26.55829971 33.1303852 -21.85834413 26.54007864 -17 20 C-16.39414063 19.17886719 -15.78828125 18.35773438 -15.1640625 17.51171875 C-10.48973386 11.33414358 -5.26777501 5.67054251 0 0 Z " fill="#FAC067" transform="translate(203,112)"/>
<path d="M0 0 C1.98 0 3.96 0 6 0 C6.50148014 2.46358203 6.99733979 4.92804582 7.484375 7.39453125 C7.87517243 9.36924249 8.27842335 11.34149432 8.6875 13.3125 C9.02225407 16.191385 8.71648809 18.20569646 8 21 C6.55859421 27.02993639 6.81398992 33.13196399 6.81469727 39.29223633 C6.81251029 41.42744877 6.79432467 43.56214435 6.77539062 45.69726562 C6.7724561 47.06770658 6.7704717 48.43814997 6.76953125 49.80859375 C6.76336792 51.66182251 6.76336792 51.66182251 6.75708008 53.55249023 C7.00389922 57.05533761 7.62874911 59.77368691 9 63 C9.66 63.33 10.32 63.66 11 64 C11 65.65 11 67.3 11 69 C6.05564239 64.90811784 4.38428799 60.10888 3.62011719 53.92675781 C2.8555407 43.55772611 3.26029306 33.42720958 3.9375 23.0625 C4.03927908 21.39653715 4.14019521 19.73052136 4.24023438 18.06445312 C4.48358618 14.04229132 4.73846253 10.02101853 5 6 C3.8553125 6.5259375 3.8553125 6.5259375 2.6875 7.0625 C0 8 0 8 -3 7 C-2.34 6.34 -1.68 5.68 -1 5 C-0.35232207 2.42938689 -0.35232207 2.42938689 0 0 Z " fill="#FDDC71" transform="translate(269,192)"/>
<path d="M0 0 C2.24265828 2.79092585 3.73990375 5.42993403 5.09375 8.73828125 C10.34513185 21.83979777 10.34513185 21.83979777 21.05078125 30.33203125 C24.98811626 32.55884191 27.855456 35.4677403 31 38.6875 C31.55212158 39.24759766 32.10424316 39.80769531 32.6730957 40.38476562 C35.32832807 43.12427151 37.80497021 45.86750957 40 49 C39.505 49.99 39.505 49.99 39 51 C37 49.625 37 49.625 35 48 C35 47.34 35 46.68 35 46 C34.34 46 33.68 46 33 46 C33 45.34 33 44.68 33 44 C31.68 44 30.36 44 29 44 C27 41 27 41 27 38 C25.02 37.67 23.04 37.34 21 37 C20.67 37.99 20.34 38.98 20 40 C19.34 39.34 18.68 38.68 18 38 C18.30271961 36.65938457 18.63837971 35.32594105 19 34 C18.67 33.01 18.34 32.02 18 31 C16.68 31 15.36 31 14 31 C13.67 30.01 13.34 29.02 13 28 C12.01 27.34 11.02 26.68 10 26 C9.5359375 24.515 9.5359375 24.515 9.0625 23 C8.30450416 19.89051751 8.30450416 19.89051751 5.875 18.625 C4.946875 18.315625 4.946875 18.315625 4 18 C4.33 16.02 4.66 14.04 5 12 C4.34 12 3.68 12 3 12 C3 10.68 3 9.36 3 8 C2.01 8.33 1.02 8.66 0 9 C0 6.03 0 3.06 0 0 Z " fill="#F6D37B" transform="translate(308,149)"/>
<path d="M0 0 C-3.06246747 1.78409802 -5.22079273 2.22880021 -8.75 2.125 C-9.54921875 2.10695313 -10.3484375 2.08890625 -11.171875 2.0703125 C-11.77515625 2.04710938 -12.3784375 2.02390625 -13 2 C-13 2.33 -13 2.66 -13 3 C-14.258125 3.103125 -15.51625 3.20625 -16.8125 3.3125 C-20.0799589 3.69586147 -20.0799589 3.69586147 -22.8125 5.4375 C-23.204375 5.953125 -23.59625 6.46875 -24 7 C-27 9 -27 9 -31 9 C-31.33 9.99 -31.66 10.98 -32 12 C-34 12.66666667 -36 13.33333333 -38 14 C-39.37310707 15.29233607 -40.71034824 16.62437146 -42 18 C-44 19.3125 -44 19.3125 -46 20 C-47.34364362 19.71101782 -48.67986936 19.38228783 -50 19 C-36.17708357 5.51348198 -19.74273706 -4.04979222 0 0 Z " fill="#FABD5E" transform="translate(254,92)"/>
<path d="M0 0 C2 3 2 3 3.3125 5.375 C5.82343701 9.28090201 9.14885327 12.1914106 12.5 15.375 C17.33729735 20.45416222 23.6413473 27.7858308 24.25 34.9375 C24.1675 35.618125 24.085 36.29875 24 37 C23.34 36.01 22.68 35.02 22 34 C21.34 34 20.68 34 20 34 C19.67 33.01 19.34 32.02 19 31 C18.01 30.34 17.02 29.68 16 29 C16 28.34 16 27.68 16 27 C15.34 27 14.68 27 14 27 C11.95830515 24.09451118 11 22.59857954 11 19 C10.236875 18.896875 9.47375 18.79375 8.6875 18.6875 C5.70259478 17.92391959 4.64325574 17.59461433 3 15 C2.8125 11.3125 2.8125 11.3125 3 8 C2.01 8 1.02 8 0 8 C0 5.36 0 2.72 0 0 Z " fill="#FCD55D" transform="translate(330,192)"/>
<path d="M0 0 C1.17661508 3.67692213 1.14475933 7.1638778 1 11 C0.67 11.33 0.34 11.66 0 12 C0.09031574 14.35694954 0.24688128 16.71153582 0.4375 19.0625 C0.53933594 20.35285156 0.64117187 21.64320313 0.74609375 22.97265625 C0.82988281 23.97167969 0.91367187 24.97070312 1 26 C2.32 26 3.64 26 5 26 C5 26.99 5 27.98 5 29 C5.99 29 6.98 29 8 29 C8.66 29.99 9.32 30.98 10 32 C17.77324135 35.07638054 25.74915698 35.39498717 34 35 C34 34.34 34 33.68 34 33 C36.64 32.67 39.28 32.34 42 32 C35.68206412 37.55978358 27.72866884 37.44680754 19.73046875 37.3046875 C12.27241107 36.69554771 7.097373 34.58813589 2 29.0625 C-3.58542197 22.30897296 -3.71819778 15.48306069 -3 7 C-2.2555403 4.35351033 -1.34757091 2.41439787 0 0 Z " fill="#F7DD81" transform="translate(287,282)"/>
<path d="M0 0 C0.99 0.33 1.98 0.66 3 1 C3 2.32 3 3.64 3 5 C3.66 5 4.32 5 5 5 C7.29342747 10.89738492 8.34548714 15.66606918 8 22 C5.03 22.66 2.06 23.32 -1 24 C-1 24.66 -1 25.32 -1 26 C-5.6079123 28.74280494 -7.82059595 29.01336166 -13 28 C-13.62132812 28.31582031 -14.24265625 28.63164062 -14.8828125 28.95703125 C-17.36563417 30.18011868 -19.0030255 30.20579337 -21.75 30.125 C-22.54921875 30.10695312 -23.3484375 30.08890625 -24.171875 30.0703125 C-24.77515625 30.04710937 -25.3784375 30.02390625 -26 30 C-16.64733656 23.76489104 -3.90978758 21.90340975 7 20 C6.66226563 19.05898437 6.32453125 18.11796875 5.9765625 17.1484375 C5.52600722 15.89063734 5.07548832 14.63282414 4.625 13.375 C4.18414062 12.14523438 3.74328125 10.91546875 3.2890625 9.6484375 C2.15654289 6.44306381 1.06307102 3.22895402 0 0 Z " fill="#F9BE61" transform="translate(260,147)"/>
<path d="M0 0 C0.66 0 1.32 0 2 0 C-1.94020953 13.90662189 -9.70870973 25.1389041 -21.4375 33.6875 C-22.283125 34.120625 -23.12875 34.55375 -24 35 C-24.99 34.67 -25.98 34.34 -27 34 C-26.34 34 -25.68 34 -25 34 C-24.67 32.68 -24.34 31.36 -24 30 C-22.35 30 -20.7 30 -19 30 C-19 28.989375 -19 27.97875 -19 26.9375 C-18.37952972 22.26010867 -15.39602167 20.16368395 -11.91015625 17.28515625 C-10 16 -10 16 -8 16 C-7.87625 15.401875 -7.7525 14.80375 -7.625 14.1875 C-7 12 -7 12 -5 9 C-4.34 9 -3.68 9 -3 9 C-2.87625 8.443125 -2.7525 7.88625 -2.625 7.3125 C-1.94023145 4.77885636 -1.00866237 2.42078968 0 0 Z " fill="#FADD7D" transform="translate(356,279)"/>
<path d="M0 0 C0.66 0 1.32 0 2 0 C0.93757045 5.74153016 -0.83969322 11.19870647 -2.625 16.75 C-3.10259766 18.32007813 -3.10259766 18.32007813 -3.58984375 19.921875 C-6.42182345 28.66930266 -10.89846263 37.0490605 -19 42 C-19.99 41.67 -20.98 41.34 -22 41 C-21.67 40.01 -21.34 39.02 -21 38 C-19.68 38 -18.36 38 -17 38 C-17 37.01 -17 36.02 -17 35 C-15.68 35 -14.36 35 -13 35 C-13.495 33.515 -13.495 33.515 -14 32 C-13.01 32 -12.02 32 -11 32 C-11 30.68 -11 29.36 -11 28 C-10.34 28 -9.68 28 -9 28 C-9 27.01 -9 26.02 -9 25 C-8.34 25 -7.68 25 -7 25 C-7 23.35 -7 21.7 -7 20 C-6.34 20 -5.68 20 -5 20 C-5 16.7 -5 13.4 -5 10 C-4.34 10 -3.68 10 -3 10 C-2.67 7.36 -2.34 4.72 -2 2 C-1.34 2 -0.68 2 0 2 C0 1.34 0 0.68 0 0 Z " fill="#F9DF8E" transform="translate(198,262)"/>
<path d="M0 0 C0.33 0 0.66 0 1 0 C3.07748389 14.02301626 0.99520147 26.46842632 -3 40 C-3.33 40 -3.66 40 -4 40 C-4.125 33.25 -4.125 33.25 -3 31 C-2.960008 29.00039988 -2.95653201 26.99952758 -3 25 C-3.66 26.98 -4.32 28.96 -5 31 C-5.66 31 -6.32 31 -7 31 C-5.68 25.39 -4.36 19.78 -3 14 C-2.34 14.66 -1.68 15.32 -1 16 C-0.67 10.72 -0.34 5.44 0 0 Z " fill="#F8DAA3" transform="translate(362,238)"/>
<path d="M0 0 C0.66 0 1.32 0 2 0 C0.62665791 8.51472098 -2.43719504 16.22879775 -9.125 22 C-15.09243697 26.1512605 -15.09243697 26.1512605 -18.25 25.625 C-19.11625 25.315625 -19.11625 25.315625 -20 25 C-18.68 24.67 -17.36 24.34 -16 24 C-16 23.34 -16 22.68 -16 22 C-14.68 22 -13.36 22 -12 22 C-12 21.34 -12 20.68 -12 20 C-11.01 20 -10.02 20 -9 20 C-9.33 18.68 -9.66 17.36 -10 16 C-5.25 12 -5.25 12 -3 12 C-2.87625 10.948125 -2.7525 9.89625 -2.625 8.8125 C-2.08859218 5.54041229 -1.36119965 2.99463924 0 0 Z " fill="#F8DF86" transform="translate(328,243)"/>
<path d="M0 0 C4.46648352 1.42634054 7.41807239 3.88197431 10.75 7.0625 C11.26788086 7.5469458 11.78576172 8.0313916 12.31933594 8.53051758 C16.9817573 12.91678013 21.52483226 17.42312391 26 22 C24 23 24 23 21.9375 22.75 C21.298125 22.5025 20.65875 22.255 20 22 C19.67 21.01 19.34 20.02 19 19 C18.01 18.67 17.02 18.34 16 18 C16 16.68 16 15.36 16 14 C15.360625 13.731875 14.72125 13.46375 14.0625 13.1875 C12 12 12 12 11 9 C8.95714503 8.19792618 8.95714503 8.19792618 6.5625 7.6875 C4.1015625 6.9609375 4.1015625 6.9609375 2 6 C0.4375 2.8125 0.4375 2.8125 0 0 Z " fill="#F7D091" transform="translate(264,98)"/>
<path d="M0 0 C1.65 0 3.3 0 5 0 C4.195625 0.928125 3.39125 1.85625 2.5625 2.8125 C-4.08263741 10.58872463 -10.54120315 18.33014618 -16 27 C-17 24 -17 24 -16.0625 21.8125 C-15.5365625 20.9153125 -15.5365625 20.9153125 -15 20 C-14.34 20 -13.68 20 -13 20 C-12.67 18.02 -12.34 16.04 -12 14 C-11.01 13.67 -10.02 13.34 -9 13 C-8.67 12.01 -8.34 11.02 -8 10 C-7.34 10 -6.68 10 -6 10 C-5.938125 9.4225 -5.87625 8.845 -5.8125 8.25 C-4.6865841 5.13207906 -2.58205789 3.98619837 0 2 C0 1.34 0 0.68 0 0 Z " fill="#F8E094" transform="translate(223,223)"/>
<path d="M0 0 C1.04449911 3.13349732 0.93423645 3.98968256 0 7 C-1.65 7 -3.3 7 -5 7 C-5.33 8.32 -5.66 9.64 -6 11 C-7.98 11.33 -9.96 11.66 -12 12 C-11.49396008 9.83125748 -11.00016187 8.00032373 -10 6 C-10.66 5.67 -11.32 5.34 -12 5 C-11 4 -11 4 -7.9375 3.9375 C-6.4834375 3.9684375 -6.4834375 3.9684375 -5 4 C-5 3.34 -5 2.68 -5 2 C-4.360625 1.855625 -3.72125 1.71125 -3.0625 1.5625 C-1.02454854 1.18992819 -1.02454854 1.18992819 0 0 Z " fill="#FCD759" transform="translate(337,302)"/>
<path d="M0 0 C0.66 0.33 1.32 0.66 2 1 C2.77509591 5.03049872 3.113823 8.90237198 3 13 C3 13.99 3 14.98 3 16 C2.34 16 1.68 16 1 16 C1 16.66 1 17.32 1 18 C1.99 18.33 2.98 18.66 4 19 C5.25541557 22.76624671 4.37061958 24.37188934 3 28 C2.34 28 1.68 28 1 28 C0.01 23.05 -0.98 18.1 -2 13 C-1.01 13 -0.02 13 1 13 C0.67 8.71 0.34 4.42 0 0 Z " fill="#FDD95E" transform="translate(267,156)"/>
<path d="M0 0 C1.875 0.125 1.875 0.125 4 1 C5.25 4.0625 5.25 4.0625 6 7 C7.32 7 8.64 7 10 7 C10 7.66 10 8.32 10 9 C10.66 9 11.32 9 12 9 C15.19904189 11.652864 16.81065479 13.22805414 17.8125 17.3125 C17.874375 18.199375 17.93625 19.08625 18 20 C17.34 20.33 16.68 20.66 16 21 C15.2575 19.7625 15.2575 19.7625 14.5 18.5 C10.97430394 13.19250055 6.28934583 8.52623055 1 5 C0.3125 2.375 0.3125 2.375 0 0 Z " fill="#FDD65F" transform="translate(331,186)"/>
<path d="M0 0 C0.6875 1.625 0.6875 1.625 1 4 C0.05698138 6.02749004 -0.95548562 8.02288349 -2 10 C-3.08525569 12.97350327 -4.0536411 15.97970564 -5 19 C-5.66 19 -6.32 19 -7 19 C-6.67 21.31 -6.34 23.62 -6 26 C-7.98 27.32 -9.96 28.64 -12 30 C-9.47933023 19.54972324 -4.79537156 9.59074312 0 0 Z " fill="#F5CD8D" transform="translate(164,166)"/>
<path d="M0 0 C2 0 2 0 4.125 1.8125 C6 4 6 4 6 7 C6.99 6.67 7.98 6.34 9 6 C13.35330092 12.52995138 14.43664818 20.28588216 14 28 C12.37317058 24.88620432 11.08878489 21.70879676 9.8125 18.4375 C7.53869196 12.89594388 4.68746745 8.04805916 1.35546875 3.08203125 C0 1 0 1 0 0 Z " fill="#F9E090" transform="translate(344,219)"/>
<path d="M0 0 C0.99 0.33 1.98 0.66 3 1 C2.5875 1.53625 2.175 2.0725 1.75 2.625 C-3.88035052 10.26618999 -7.92494643 18.4688489 -12 27 C-12.33 27 -12.66 27 -13 27 C-12.55643705 20.79011871 -11.08467498 16.39459439 -8 11 C-7.34 11 -6.68 11 -6 11 C-6.061875 10.236875 -6.12375 9.47375 -6.1875 8.6875 C-6 6 -6 6 -4.625 4.1875 C-3 3 -3 3 -1 3 C-0.67 2.01 -0.34 1.02 0 0 Z " fill="#F7DF8A" transform="translate(231,142)"/>
<path d="M0 0 C1.32 0.33 2.64 0.66 4 1 C4 1.66 4 2.32 4 3 C5.134375 3.144375 6.26875 3.28875 7.4375 3.4375 C11 4 11 4 12 5 C13.41570123 5.08651611 14.835595 5.10704904 16.25390625 5.09765625 C17.10791016 5.09443359 17.96191406 5.09121094 18.84179688 5.08789062 C20.18854492 5.07532227 20.18854492 5.07532227 21.5625 5.0625 C22.46419922 5.05798828 23.36589844 5.05347656 24.29492188 5.04882812 C26.53001314 5.03700225 28.76497437 5.0205222 31 5 C27.60594822 8.39405178 23.18348989 8.96199622 18.53125 9.04296875 C11.7432742 8.59253208 5.63177046 6.96074176 1 1.75 C0.505 0.88375 0.505 0.88375 0 0 Z " fill="#F7DF8F" transform="translate(146,299)"/>
<path d="M0 0 C0 0.99 0 1.98 0 3 C-0.7425 3.721875 -1.485 4.44375 -2.25 5.1875 C-5.10401294 8.10637687 -6.37191861 10.52310337 -7.91015625 14.23046875 C-9.27643814 16.44884043 -10.66430322 16.94516919 -13 18 C-13.68486725 19.32407669 -14.34870203 20.65909241 -15 22 C-16.62746694 23.70496537 -18.28891311 25.37897032 -20 27 C-20 17.82360132 -6.104406 6.43529904 0 0 Z " fill="#F9D399" transform="translate(203,112)"/>
<path d="M0 0 C0.33 0 0.66 0 1 0 C1.01458252 0.77077881 1.02916504 1.54155762 1.04418945 2.33569336 C1.11923166 5.87010173 1.21570647 9.40362307 1.3125 12.9375 C1.33505859 14.14986328 1.35761719 15.36222656 1.38085938 16.61132812 C1.58127151 23.33424435 1.8028401 29.92549053 5 36 C5.66 36.33 6.32 36.66 7 37 C7 38.65 7 40.3 7 42 C1.95288952 37.82308098 0.39162874 32.95281141 -0.44140625 26.671875 C-1.18565171 17.66556287 -0.82840358 8.98499269 0 0 Z " fill="#F7E8AA" transform="translate(273,219)"/>
<path d="M0 0 C0.99 0.33 1.98 0.66 3 1 C3 2.32 3 3.64 3 5 C3.66 5 4.32 5 5 5 C7.29342747 10.89738492 8.34548714 15.66606918 8 22 C1.74051886 24.13391403 -4.42208127 24.58955515 -11 25 C-7.52934193 22.68622795 -4.32959845 22.11015527 -0.3125 21.375 C0.38939453 21.2409375 1.09128906 21.106875 1.81445312 20.96875 C3.54181706 20.6397283 5.27076591 20.31904688 7 20 C6.66226562 19.05898437 6.32453125 18.11796875 5.9765625 17.1484375 C5.52600722 15.89063734 5.07548832 14.63282414 4.625 13.375 C4.18414062 12.14523438 3.74328125 10.91546875 3.2890625 9.6484375 C2.15654289 6.44306381 1.06307102 3.22895402 0 0 Z " fill="#F8DF9D" transform="translate(260,147)"/>
<path d="M0 0 C4.39970265 4.0114936 8.42485876 8.58833101 11 14 C10.6640625 16.27734375 10.6640625 16.27734375 10 18 C7.17621961 16.96461386 6.1756855 16.33380245 4.75 13.625 C4 11 4 11 4 7 C3.34 7 2.68 7 2 7 C0 4 0 4 0 0 Z " fill="#FABE5A" transform="translate(293,126)"/>
<path d="M0 0 C0.99 0.495 0.99 0.495 2 1 C2.680625 1.268125 3.36125 1.53625 4.0625 1.8125 C6 3 6 3 6.7109375 4.77734375 C7.06692345 7.51458705 6.51063784 9.17106509 5.5625 11.75 C5.27503906 12.54921875 4.98757813 13.3484375 4.69140625 14.171875 C4.46324219 14.77515625 4.23507812 15.3784375 4 16 C3.34 15.67 2.68 15.34 2 15 C1.3671875 12.63671875 1.3671875 12.63671875 0.875 9.6875 C0.70742188 8.72199219 0.53984375 7.75648438 0.3671875 6.76171875 C0 4 0 4 0 0 Z " fill="#FED95C" transform="translate(321,177)"/>
<path d="M0 0 C2.6224715 2.6224715 2.64217954 4.35023127 3 8 C2.625 10.5625 2.625 10.5625 2 13 C1.18660335 16.52372928 0.89120126 19.72987622 0.9375 23.34375 C0.94523437 24.34277344 0.95296875 25.34179688 0.9609375 26.37109375 C0.97382813 27.40363281 0.98671875 28.43617188 1 29.5 C1.02561834 31.55202918 1.04661256 33.60412242 1.0625 35.65625 C1.07410156 36.56181641 1.08570313 37.46738281 1.09765625 38.40039062 C0.99871911 41.03409733 0.58753528 43.4347377 0 46 C-0.33 46 -0.66 46 -1 46 C-1.20638953 13.48571149 -1.20638953 13.48571149 0 0 Z " fill="#F8D76B" transform="translate(275,200)"/>
<path d="M0 0 C0.33 0 0.66 0 1 0 C1.05491533 1.68712082 1.09319918 3.37478525 1.125 5.0625 C1.14820313 6.00222656 1.17140625 6.94195312 1.1953125 7.91015625 C1 11 1 11 0.01367188 14.24023438 C-1.01221853 18.04531922 -1.31283748 21.31518876 -1.4140625 25.24609375 C-1.43342865 25.90207047 -1.4527948 26.55804718 -1.4727478 27.23390198 C-1.53188909 29.30164128 -1.57866229 31.36943829 -1.625 33.4375 C-1.66324033 34.85093394 -1.70229545 36.26434609 -1.7421875 37.67773438 C-1.83753452 41.11828852 -1.92180287 44.55900839 -2 48 C-2.33 48 -2.66 48 -3 48 C-4.05951321 38.93686671 -3.98522652 30.27320836 -3.1875 21.1875 C-3.10516113 20.23415771 -3.02282227 19.28081543 -2.93798828 18.29858398 C-2.3443439 12.10289037 -1.34042916 6.07699808 0 0 Z " fill="#F7E6B2" transform="translate(140,235)"/>
<path d="M0 0 C0.66 0.33 1.32 0.66 2 1 C0.33333333 2.66666667 -1.33333333 4.33333333 -3 6 C-3.6496875 6.81984375 -3.6496875 6.81984375 -4.3125 7.65625 C-6.75768272 9.60333995 -8.61410858 9.29597264 -11.6875 9.1875 C-12.68136719 9.16042969 -13.67523438 9.13335937 -14.69921875 9.10546875 C-15.45847656 9.07066406 -16.21773437 9.03585938 -17 9 C-13.70101352 6.30230662 -10.2321566 4.54362136 -6.375 2.75 C-5.22773438 2.20859375 -4.08046875 1.6671875 -2.8984375 1.109375 C-1.94195312 0.74328125 -0.98546875 0.3771875 0 0 Z " fill="#F7CB7D" transform="translate(232,177)"/>
<path d="M0 0 C4.08177609 5.19498775 7.73779261 10.95839424 8.3125 17.625 C8.1578125 18.800625 8.1578125 18.800625 8 20 C6.68 19.34 5.36 18.68 4 18 C4.33 16.02 4.66 14.04 5 12 C4.34 12 3.68 12 3 12 C3 10.68 3 9.36 3 8 C2.01 8.33 1.02 8.66 0 9 C0 6.03 0 3.06 0 0 Z " fill="#F6CA81" transform="translate(308,149)"/>
<path d="M0 0 C1.875 0.125 1.875 0.125 4 1 C6.11792151 5.70649225 6.9468384 10.95826894 8 16 C3.92388228 12.36454366 1.78563754 9.16895076 0 4 C0 2.68 0 1.36 0 0 Z " fill="#F9DC72" transform="translate(138,283)"/>
<path d="M0 0 C0.86625 0.495 1.7325 0.99 2.625 1.5 C2.295 2.49 1.965 3.48 1.625 4.5 C0.92375 4.005 0.2225 3.51 -0.5 3 C-3.98149476 1.18356795 -5.48773771 0.90195965 -9.375 1.5 C-12.49889297 2.97488717 -15.44334354 4.67585821 -18.375 6.5 C-18.375 5.51 -18.375 4.52 -18.375 3.5 C-17.385 3.5 -16.395 3.5 -15.375 3.5 C-15.375 2.51 -15.375 1.52 -15.375 0.5 C-9.68226155 -1.66866227 -5.68388748 -2.52617221 0 0 Z " fill="#F9DF91" transform="translate(252.375,135.5)"/>
<path d="M0 0 C0.928125 0.165 1.85625 0.33 2.8125 0.5 C9.8171441 1.49659571 17.0750424 1.49728813 24 0 C23.67 0.99 23.34 1.98 23 3 C15.48751716 3.94450945 8.51248284 3.94450945 1 3 C0.67 2.01 0.34 1.02 0 0 Z " fill="#FAD59A" transform="translate(324,276)"/>
<path d="M0 0 C1.32 0.33 2.64 0.66 4 1 C3.01 1.495 3.01 1.495 2 2 C2.144375 2.81082031 2.28875 3.62164062 2.4375 4.45703125 C4.24402085 15.23342994 4.3149418 25.17521128 3 36 C2.67 36 2.34 36 2 36 C2.03480469 34.1128125 2.03480469 34.1128125 2.0703125 32.1875 C2.20748403 21.26093063 1.68997609 10.80377575 0 0 Z " fill="#F9E8A8" transform="translate(328,205)"/>
<path d="M0 0 C0.66 0.66 1.32 1.32 2 2 C-0.3896798 7.79145929 -2.45408806 10.97495712 -8 14 C-7.71125 13.319375 -7.4225 12.63875 -7.125 11.9375 C-5.89513221 8.92022621 -5.89513221 8.92022621 -5.125 5.3125 C-4 2 -4 2 -1.875 0.5625 C-0.946875 0.2840625 -0.946875 0.2840625 0 0 Z " fill="#FCBC5D" transform="translate(169,164)"/>
<path d="M0 0 C1.95402 6.80946365 -0.45277753 12.68731823 -3 19 C-3.66 19 -4.32 19 -5 19 C-5.33 19.99 -5.66 20.98 -6 22 C-5.40421223 16.73378394 -4.18691204 12.05591981 -2.4375 7.0625 C-2.20353516 6.37865234 -1.96957031 5.69480469 -1.72851562 4.99023438 C-1.15788171 3.32491499 -0.57972902 1.66217507 0 0 Z " fill="#F8D49A" transform="translate(151,196)"/>
<path d="M0 0 C-3.23866621 2.15911081 -6.59869892 3.92917168 -10.0625 5.6875 C-10.69994141 6.02072266 -11.33738281 6.35394531 -11.99414062 6.69726562 C-13.63242239 7.52762762 -15.31419223 8.27094559 -17 9 C-17.66 8.67 -18.32 8.34 -19 8 C-13.80309771 1.99108173 -8.06372401 -0.6047793 0 0 Z " fill="#F7D892" transform="translate(266,200)"/>
<path d="M0 0 C2 3 2 3 3.125 5.875 C5.62303403 10.03839005 8.79672979 11.74361267 13 14 C10 15 10 15 6 15 C5.67 14.01 5.34 13.02 5 12 C4.01 11.34 3.02 10.68 2 10 C-0.23513741 6.70611329 -0.17758833 3.90694321 0 0 Z " fill="#F7E396" transform="translate(316,165)"/>
<path d="M0 0 C-2.99126319 1.72206188 -5.10685713 2.24179923 -8.546875 2.1953125 C-9.81337891 2.18564453 -9.81337891 2.18564453 -11.10546875 2.17578125 C-11.97816406 2.15902344 -12.85085937 2.14226562 -13.75 2.125 C-15.08224609 2.11146484 -15.08224609 2.11146484 -16.44140625 2.09765625 C-18.62788058 2.07414577 -20.81380094 2.04128499 -23 2 C-16.32246034 -2.4516931 -7.59324919 -1.55758958 0 0 Z " fill="#F8DCAB" transform="translate(254,92)"/>
<path d="M0 0 C1.65 0 3.3 0 5 0 C0.37951624 3.72619658 -4.30982806 7.36230673 -9 11 C-9.33 10.34 -9.66 9.68 -10 9 C-9.67 8.01 -9.34 7.02 -9 6 C-8.01 6 -7.02 6 -6 6 C-6 5.01 -6 4.02 -6 3 C-4.02 2.34 -2.04 1.68 0 1 C0 0.67 0 0.34 0 0 Z " fill="#F8DD97" transform="translate(242,209)"/>
<path d="M0 0 C-5.51109092 4.84976001 -11.85264681 5.25039563 -18.9375 5.125 C-19.62134766 5.11597656 -20.30519531 5.10695313 -21.00976562 5.09765625 C-22.67333287 5.07438958 -24.33671631 5.03853167 -26 5 C-26 4.67 -26 4.34 -26 4 C-20.06 3.67 -14.12 3.34 -8 3 C-8 2.34 -8 1.68 -8 1 C-5.07175348 0.02391783 -3.04386724 -0.08226668 0 0 Z " fill="#F9E6A8" transform="translate(329,314)"/>
<path d="M0 0 C0.66 0.33 1.32 0.66 2 1 C1.67 1.66 1.34 2.32 1 3 C0.01 3 -0.98 3 -2 3 C-2.33 3.99 -2.66 4.98 -3 6 C-6.3 6.66 -9.6 7.32 -13 8 C-10.25827108 5.25827108 -8.33417962 3.95084105 -4.9375 2.25 C-4.05964844 1.80140625 -3.18179688 1.3528125 -2.27734375 0.890625 C-1.52582031 0.59671875 -0.77429688 0.3028125 0 0 Z " fill="#F8D197" transform="translate(229,94)"/>
<path d="M0 0 C1.17661508 3.67692213 1.14475933 7.1638778 1 11 C0.67 11.33 0.34 11.66 0 12 C-0.04092937 14.33297433 -0.04241723 16.66705225 0 19 C-0.66 18.67 -1.32 18.34 -2 18 C-2.05397335 15.5622037 -2.09365616 13.12560315 -2.125 10.6875 C-2.14175781 9.99720703 -2.15851563 9.30691406 -2.17578125 8.59570312 C-2.21217794 4.82864604 -2.14378864 3.21568296 0 0 Z " fill="#F8D97E" transform="translate(287,282)"/>
<path d="M0 0 C-1.98 0.99 -1.98 0.99 -4 2 C-4 2.66 -4 3.32 -4 4 C-5.75 5.125 -5.75 5.125 -8 6 C-10.25 5.125 -10.25 5.125 -12 4 C-11.01 4 -10.02 4 -9 4 C-8.731875 3.360625 -8.46375 2.72125 -8.1875 2.0625 C-6.08556352 -1.58823178 -3.58713791 -1.1132497 0 0 Z " fill="#FBBF5E" transform="translate(222,186)"/>
<path d="M0 0 C6.8218683 -0.38614349 12.49577707 0.99134292 19 3 C19 3.33 19 3.66 19 4 C12.32508169 4.45510807 6.40625443 2.7672426 0 1 C0 0.67 0 0.34 0 0 Z " fill="#F7D8A6" transform="translate(304,272)"/>
<path d="M0 0 C0.66 0 1.32 0 2 0 C1.01 3.63 0.02 7.26 -1 11 C-0.01 11 0.98 11 2 11 C1.01 12.485 1.01 12.485 0 14 C-1.32 13.67 -2.64 13.34 -4 13 C-3.27991594 8.39146203 -1.68704061 4.32762591 0 0 Z " fill="#F8E098" transform="translate(213,176)"/>
<path d="M0 0 C0.66 0.33 1.32 0.66 2 1 C1.01 2.175625 1.01 2.175625 0 3.375 C-2.20201441 5.71512812 -2.20201441 5.71512812 -2 8 C-3.75 9.0625 -3.75 9.0625 -6 10 C-7.32 9.67 -8.64 9.34 -10 9 C-6.7 6.03 -3.4 3.06 0 0 Z " fill="#F9D399" transform="translate(214,102)"/>
<path d="M0 0 C0.93134261 2.52143975 1.16007332 3.61526236 0.109375 6.140625 C-0.33921875 6.83671875 -0.7878125 7.5328125 -1.25 8.25 C-1.68828125 8.95640625 -2.1265625 9.6628125 -2.578125 10.390625 C-3.04734375 10.92171875 -3.5165625 11.4528125 -4 12 C-4.99 12 -5.98 12 -7 12 C-5.44298069 7.32894208 -2.91552627 3.91294315 0 0 Z " fill="#F7CE8E" transform="translate(181,139)"/>
<path d="M0 0 C0.33 0 0.66 0 1 0 C1.03738281 0.70125 1.07476562 1.4025 1.11328125 2.125 C1.44223193 6.87220984 1.83480809 11.12380499 3.625 15.5625 C4.07875 16.696875 4.5325 17.83125 5 19 C4.67 19.66 4.34 20.32 4 21 C-0.40744316 13.97563746 -0.4485551 8.17367067 0 0 Z " fill="#F9E49D" transform="translate(284,289)"/>
<path d="M0 0 C7.75 -0.125 7.75 -0.125 10 1 C11.70363822 1.22622081 13.41328701 1.40888473 15.125 1.5625 C16.03507812 1.64628906 16.94515625 1.73007812 17.8828125 1.81640625 C18.58148438 1.87699219 19.28015625 1.93757813 20 2 C20 2.33 20 2.66 20 3 C6.3667426 3.3690205 6.3667426 3.3690205 0 1 C0 0.67 0 0.34 0 0 Z " fill="#F9E5A2" transform="translate(288,267)"/>
<path d="M0 0 C0.66 0 1.32 0 2 0 C2.33 1.98 2.66 3.96 3 6 C1.02 7.32 -0.96 8.64 -3 10 C-2.01 6.7 -1.02 3.4 0 0 Z " fill="#FACA85" transform="translate(155,186)"/>
<path d="M0 0 C-1.65 0.33 -3.3 0.66 -5 1 C-5.33 1.99 -5.66 2.98 -6 4 C-6.7425 4.103125 -7.485 4.20625 -8.25 4.3125 C-11.17014018 5.04253504 -12.73187554 6.06789398 -15 8 C-13.49364535 3.78220697 -10.75987578 2.2252326 -7 0 C-3.86650268 -1.04449911 -3.01031744 -0.93423645 0 0 Z " fill="#FADBA7" transform="translate(303,274)"/>
<path d="M0 0 C-0.33 0.99 -0.66 1.98 -1 3 C-3.88211302 3.96070434 -5.69850044 4.10581883 -8.6875 4.0625 C-9.89986328 4.04896484 -9.89986328 4.04896484 -11.13671875 4.03515625 C-12.05904297 4.01775391 -12.05904297 4.01775391 -13 4 C-10.56272708 2.37515139 -8.62713877 1.34310925 -5.9375 0.3125 C-5.24527344 0.04050781 -4.55304688 -0.23148438 -3.83984375 -0.51171875 C-2 -1 -2 -1 0 0 Z " fill="#F9D399" transform="translate(247,173)"/>
<path d="M0 0 C0.66 0 1.32 0 2 0 C1.875 2.25 1.875 2.25 1 5 C-1.875 7.375 -1.875 7.375 -5 9 C-5.99 8.67 -6.98 8.34 -8 8 C-7.34 8 -6.68 8 -6 8 C-5.67 6.68 -5.34 5.36 -5 4 C-3.35 4 -1.7 4 0 4 C0 2.68 0 1.36 0 0 Z " fill="#F9E499" transform="translate(337,305)"/>
<path d="M0 0 C0.33 0 0.66 0 1 0 C1.20852314 6.40629424 1.1583195 11.92972642 -1 18 C-1.33 18 -1.66 18 -2 18 C-2.23268915 11.71739294 -1.40454548 6.11980533 0 0 Z " fill="#F5D69D" transform="translate(140,235)"/>
<path d="M0 0 C0.66 0.33 1.32 0.66 2 1 C2.33 2.32 2.66 3.64 3 5 C-0.63 5 -4.26 5 -8 5 C-2.85714286 1.14285714 -2.85714286 1.14285714 0 0 Z " fill="#F8CF8A" transform="translate(223,181)"/>
<path d="M0 0 C1.32 0.33 2.64 0.66 4 1 C2.76055724 1.86941494 1.50792941 2.72005457 0.25 3.5625 C-0.44609375 4.03816406 -1.1421875 4.51382812 -1.859375 5.00390625 C-4 6 -4 6 -6.265625 5.65234375 C-6.83796875 5.43707031 -7.4103125 5.22179687 -8 5 C-6.68 4.67 -5.36 4.34 -4 4 C-4 3.34 -4 2.68 -4 2 C-2.68 2 -1.36 2 0 2 C0 1.34 0 0.68 0 0 Z " fill="#F9E498" transform="translate(316,263)"/>
<path d="M0 0 C0.99 0.495 0.99 0.495 2 1 C2.33333333 2.66666667 2.66666667 4.33333333 3 6 C3.66 6.33 4.32 6.66 5 7 C5 8.65 5 10.3 5 12 C0.02368421 7.18421053 0.02368421 7.18421053 -0.0625 2.875 C-0.041875 1.92625 -0.02125 0.9775 0 0 Z " fill="#F8E089" transform="translate(275,249)"/>
<path d="M0 0 C0.86625 0.4640625 0.86625 0.4640625 1.75 0.9375 C3.90141503 2.09795529 3.90141503 2.09795529 6.0625 2.25 C8 3 8 3 9.8125 5.9375 C10.204375 6.948125 10.59625 7.95875 11 9 C10.67 9.66 10.34 10.32 10 11 C6.40365256 7.50640535 3.16548033 3.88901869 0 0 Z " fill="#FBEAAB" transform="translate(333,208)"/>
<path d="M0 0 C0.66 0 1.32 0 2 0 C-0.89066059 9.59453303 -0.89066059 9.59453303 -4 13 C-3.50269348 8.02693484 -2.44697666 4.36200187 0 0 Z " fill="#F7E29C" transform="translate(356,279)"/>
<path d="M0 0 C2 0.3125 2 0.3125 4 1 C4.33 1.66 4.66 2.32 5 3 C3.20866022 3.05391993 1.41686101 3.09275571 -0.375 3.125 C-1.37273437 3.14820313 -2.37046875 3.17140625 -3.3984375 3.1953125 C-6 3 -6 3 -8 1 C-6.865625 1.020625 -5.73125 1.04125 -4.5625 1.0625 C-1.18424326 1.41577477 -1.18424326 1.41577477 0 0 Z " fill="#FBD46C" transform="translate(304,266)"/>
<path d="M0 0 C0.33 0.66 0.66 1.32 1 2 C1.66 2.33 2.32 2.66 3 3 C0.75 5.0625 0.75 5.0625 -2 7 C-4.3125 6.75 -4.3125 6.75 -6 6 C-4 4 -2 2 0 0 Z " fill="#F8CF8B" transform="translate(354,269)"/>
<path d="M0 0 C0.66 0 1.32 0 2 0 C3.35439668 2.70879335 3.06501451 5.00933268 3 8 C1.68 7.34 0.36 6.68 -1 6 C-0.67 4.02 -0.34 2.04 0 0 Z " fill="#F9C473" transform="translate(313,161)"/>
<path d="M0 0 C2.4375 0.75 2.4375 0.75 5 2 C5.6875 4.0625 5.6875 4.0625 6 6 C6.66 6.33 7.32 6.66 8 7 C5.03 6.505 5.03 6.505 2 6 C1.34 4.02 0.68 2.04 0 0 Z " fill="#F8CA85" transform="translate(264,98)"/>
<path d="M0 0 C3.95820859 0.56545837 6.6659053 1.80902348 10 4 C7.6921509 5.15392455 5.52769669 5.53437166 3 6 C2.87625 5.195625 2.7525 4.39125 2.625 3.5625 C2.315625 2.2940625 2.315625 2.2940625 2 1 C1.34 0.67 0.68 0.34 0 0 Z " fill="#F8D48E" transform="translate(254,93)"/>
<path d="M0 0 C0.66 0.33 1.32 0.66 2 1 C0.35 4.3 -1.3 7.6 -3 11 C-3.33 11 -3.66 11 -4 11 C-3.125 4.25 -3.125 4.25 -2 2 C-1.34 2 -0.68 2 0 2 C0 1.34 0 0.68 0 0 Z " fill="#F8DD92" transform="translate(204,251)"/>
<path d="M0 0 C-0.66 2.31 -1.32 4.62 -2 7 C-2.66 7 -3.32 7 -4 7 C-4 7.66 -4 8.32 -4 9 C-4.99 8.67 -5.98 8.34 -7 8 C-6.34 8 -5.68 8 -5 8 C-5.0928125 6.8553125 -5.0928125 6.8553125 -5.1875 5.6875 C-5 3 -5 3 -3.625 1.1875 C-2 0 -2 0 0 0 Z " fill="#F9D960" transform="translate(208,244)"/>
<path d="M0 0 C0.75 1.625 0.75 1.625 1 4 C-0.8125 7.25 -0.8125 7.25 -3 10 C-3.66 10 -4.32 10 -5 10 C-3.66511872 6.40608886 -2.03977277 3.24509304 0 0 Z " fill="#F7D497" transform="translate(173,151)"/>
<path d="M0 0 C3 2 3 2 3.51171875 4.1640625 C3.56972656 4.97617187 3.62773437 5.78828125 3.6875 6.625 C3.75324219 7.44226563 3.81898438 8.25953125 3.88671875 9.1015625 C3.92410156 9.72804688 3.96148437 10.35453125 4 11 C0.85041169 7.57653445 0.43820891 4.55737263 0 0 Z " fill="#F8E195" transform="translate(138,283)"/>
<path d="M0 0 C0.66 0.99 1.32 1.98 2 3 C0.63016497 6.16115776 0.0109362 6.9927092 -3 9 C-2.25 2.25 -2.25 2.25 0 0 Z " fill="#FABC63" transform="translate(154,194)"/>
<path d="M0 0 C2.5 2.3125 2.5 2.3125 5 5 C5 5.99 5 6.98 5 8 C2 7 2 7 0 4 C0 2.68 0 1.36 0 0 Z " fill="#F7D191" transform="translate(293,126)"/>
<path d="M0 0 C-0.33 0.99 -0.66 1.98 -1 3 C-4.63 3.33 -8.26 3.66 -12 4 C-12 3.67 -12 3.34 -12 3 C-10.37604003 2.49663233 -8.75079459 1.99741024 -7.125 1.5 C-6.22007812 1.2215625 -5.31515625 0.943125 -4.3828125 0.65625 C-2 0 -2 0 0 0 Z " fill="#F4CD8B" transform="translate(348,276)"/>
<path d="M0 0 C0.33 0.66 0.66 1.32 1 2 C0.06421005 4.35981813 -0.93347808 6.69631264 -2 9 C-2.66 8.67 -3.32 8.34 -4 8 C-3.50168276 4.31245243 -2.89932357 2.39509338 0 0 Z " fill="#F9C252" transform="translate(143,249)"/>
<path d="M0 0 C1.32 0 2.64 0 4 0 C4 0.66 4 1.32 4 2 C3.34 2 2.68 2 2 2 C2 2.66 2 3.32 2 4 C0.68 4.33 -0.64 4.66 -2 5 C-2 2 -2 2 0 0 Z " fill="#F8C05D" transform="translate(234,177)"/>
<path d="M0 0 C0.6875 1.625 0.6875 1.625 1 4 C-0.4375 7.25 -0.4375 7.25 -2 10 C-2.66 10 -3.32 10 -4 10 C-2.8905928 6.51329166 -1.73662334 3.22515763 0 0 Z " fill="#F8D799" transform="translate(164,166)"/>
<path d="M0 0 C0.66 0 1.32 0 2 0 C1.67 1.65 1.34 3.3 1 5 C0.01 5.33 -0.98 5.66 -2 6 C-2.33 6.66 -2.66 7.32 -3 8 C-2.67 6.02 -2.34 4.04 -2 2 C-1.34 2 -0.68 2 0 2 C0 1.34 0 0.68 0 0 Z " fill="#F9DE7C" transform="translate(198,262)"/>
<path d="M0 0 C-6 4 -6 4 -10 4 C-10 3.34 -10 2.68 -10 2 C-6.5980513 -0.09350689 -3.94727588 -0.17942163 0 0 Z " fill="#F8DEA1" transform="translate(266,200)"/>
<path d="M0 0 C4.13333333 6.2 4.13333333 6.2 3.625 9.25 C3.41875 9.8275 3.2125 10.405 3 11 C0.29417212 7.16674383 -0.32613618 4.67461851 0 0 Z " fill="#F7D094" transform="translate(316,165)"/>
<path d="M0 0 C1.32 0 2.64 0 4 0 C4 0.99 4 1.98 4 3 C-0.625 5.125 -0.625 5.125 -4 4 C-3.34 3.525625 -2.68 3.05125 -2 2.5625 C-1.34 2.046875 -0.68 1.53125 0 1 C0 0.67 0 0.34 0 0 Z " fill="#F9E592" transform="translate(270,195)"/>
<path d="M0 0 C1.32 0 2.64 0 4 0 C3.67 1.65 3.34 3.3 3 5 C2.01 5 1.02 5 0 5 C0 3.35 0 1.7 0 0 Z " fill="#FCDE5C" transform="translate(208,179)"/>
<path d="M0 0 C2.79872437 2.52788007 4.45773019 4.20411134 5 8 C2 7 2 7 0 4 C0 2.68 0 1.36 0 0 Z " fill="#F7D499" transform="translate(299,134)"/>
<path d="M0 0 C1 3 1 3 0.0625 5.1875 C-0.4634375 6.0846875 -0.4634375 6.0846875 -1 7 C-1.66 7 -2.32 7 -3 7 C-2.25 2.25 -2.25 2.25 0 0 Z " fill="#F9C665" transform="translate(291,279)"/>
<path d="M0 0 C2.72426311 2.35277269 3.8141763 4.62496331 5 8 C3.0625 7.375 3.0625 7.375 1 6 C0.25 2.875 0.25 2.875 0 0 Z " fill="#F7D898" transform="translate(348,200)"/>
<path d="M0 0 C1.32 0 2.64 0 4 0 C4.33 2.31 4.66 4.62 5 7 C2.47411298 4.63707344 1.11179163 3.33537489 0 0 Z " fill="#FAE39F" transform="translate(255,140)"/>
<path d="M0 0 C1.32 0.33 2.64 0.66 4 1 C1.63707344 3.52588702 0.33537489 4.88820837 -3 6 C-3 5.01 -3 4.02 -3 3 C-2.01 3 -1.02 3 0 3 C0 2.01 0 1.02 0 0 Z " fill="#F9E49D" transform="translate(237,136)"/>
</svg>
